<?xml version="1.0" encoding="UTF-8" standalone="no" ?>
<!DOCTYPE svg PUBLIC "-//W3C//DTD SVG 1.1//EN" "http://www.w3.org/Graphics/SVG/1.1/DTD/svg11.dtd">
<svg xmlns="http://www.w3.org/2000/svg" xmlns:xlink="http://www.w3.org/1999/xlink" version="1.1" width="48" height="48" viewBox="0 0 48 48" xml:space="preserve">
<desc>Created with Fabric.js 5.2.4</desc>
<defs>
</defs>
<rect x="0" y="0" width="100%" height="100%" fill="transparent"></rect>
<g transform="matrix(0 0 0 0 0 0)" id="b61242c2-8703-4e3c-9d6b-a132bd833715"  >
</g>
<g transform="matrix(1 0 0 1 24 24)" id="a8aa63fe-311a-4038-bdd1-47677e49d6d0"  >
<rect style="stroke: none; stroke-width: 1; stroke-dasharray: none; stroke-linecap: butt; stroke-dashoffset: 0; stroke-linejoin: miter; stroke-miterlimit: 4; fill: rgb(255,255,255); fill-rule: nonzero; opacity: 1; visibility: hidden;" vector-effect="non-scaling-stroke"  x="-24" y="-24" rx="0" ry="0" width="48" height="48" />
</g>
<g transform="matrix(0.04 0 0 0.04 22.58 22.58)"  >
<path style="stroke: rgb(255,255,255); stroke-width: 0; stroke-dasharray: none; stroke-linecap: butt; stroke-dashoffset: 0; stroke-linejoin: miter; stroke-miterlimit: 4; fill: rgb(255,255,255); fill-rule: nonzero; opacity: 1;" vector-effect="non-scaling-stroke"  transform=" translate(-480, 480)" d="M 480 -480 Q 414 -480 367 -527 Q 320 -574 320 -640 Q 320 -706 367 -753 Q 414 -800 480 -800 Q 546 -800 593 -753 Q 640 -706 640 -640 Q 640 -574 593 -527 Q 546 -480 480 -480 Z M 160 -160 L 160 -272 Q 160 -306 177.5 -334.5 Q 195 -363 224 -378 Q 286 -409 350 -424.5 Q 414 -440 480 -440 Q 546 -440 610 -424.5 Q 674 -409 736 -378 Q 765 -363 782.5 -334.5 Q 800 -306 800 -272 L 800 -160 L 160 -160 Z M 240 -240 L 720 -240 L 720 -272 Q 720 -283 714.5 -292 Q 709 -301 700 -306 Q 646 -333 591 -346.5 Q 536 -360 480 -360 Q 424 -360 369 -346.5 Q 314 -333 260 -306 Q 251 -301 245.5 -292 Q 240 -283 240 -272 L 240 -240 Z M 480 -560 Q 513 -560 536.5 -583.5 Q 560 -607 560 -640 Q 560 -673 536.5 -696.5 Q 513 -720 480 -720 Q 447 -720 423.5 -696.5 Q 400 -673 400 -640 Q 400 -607 423.5 -583.5 Q 447 -560 480 -560 Z M 480 -640 Z M 480 -240 Z" stroke-linecap="round" />
</g>
</svg>